<?xml version="1.0" encoding="UTF-8"?>
<svg width="2000" height="2000" xmlns="http://www.w3.org/2000/svg">
  <defs>
    <linearGradient id="fabrichoodie_front.svg" x1="0%" y1="0%" x2="100%" y2="100%">
      <stop offset="0%" style="stop-color:#1a1a1a;stop-opacity:1" />
      <stop offset="50%" style="stop-color:#000000;stop-opacity:1" />
      <stop offset="100%" style="stop-color:#0d0d0d;stop-opacity:1" />
    </linearGradient>
    <filter id="shadow">
      <feGaussianBlur in="SourceAlpha" stdDeviation="8"/>
      <feOffset dx="0" dy="4" result="offsetblur"/>
      <feComponentTransfer>
        <feFuncA type="linear" slope="0.3"/>
      </feComponentTransfer>
      <feMerge>
        <feMergeNode/>
        <feMergeNode in="SourceGraphic"/>
      </feMerge>
    </filter>
  </defs>
  
  <!-- Background -->
  <rect width="2000" height="2000" fill="#f8f9fa"/>
  
  <!-- Shadow -->
  <ellipse cx="1000" cy="1850" rx="400" ry="50" fill="#000000" opacity="0.1"/>
  
  
    <!-- Front of Shirt - More realistic t-shirt shape -->
    <!-- Left Sleeve -->
    <ellipse cx="550" cy="550" rx="150" ry="120" 
             fill="url(#fabrichoodie_front.svg)" filter="url(#shadow)"/>
    
    <!-- Right Sleeve -->
    <ellipse cx="1450" cy="550" rx="150" ry="120" 
             fill="url(#fabrichoodie_front.svg)" filter="url(#shadow)"/>
    
    <!-- Main Body -->
    <path d="M 650 450 Q 1000 420 1350 450 L 1300 1650 Q 1000 1680 700 1650 Z" 
          fill="url(#fabrichoodie_front.svg)" filter="url(#shadow)"/>
    
    <!-- Neckline -->
    <ellipse cx="1000" cy="450" rx="120" ry="40" fill="#0a0a0a"/>
    <ellipse cx="1000" cy="445" rx="100" ry="30" fill="url(#fabrichoodie_front.svg)"/>
    
    <!-- Shoulder seams -->
    <line x1="650" y1="450" x2="700" y2="500" stroke="#0a0a0a" stroke-width="2" opacity="0.5"/>
    <line x1="1350" y1="450" x2="1300" y2="500" stroke="#0a0a0a" stroke-width="2" opacity="0.5"/>
  
  
  
    <!-- Hood -->
    <ellipse cx="1000" cy="320" rx="120" ry="80" fill="#0d0d0d" filter="url(#shadow)"/>
    <path d="M 920 340 Q 1000 380 1080 340" stroke="#1a1a1a" stroke-width="3" fill="none"/>
  
  
  <!-- Fabric texture overlay -->
  <rect x="850" y="350" width="300" height="1300" 
        fill="url(#fabrichoodie_front.svg)" opacity="0.3"/>
  
  <!-- Print area indicator (subtle) -->
  <rect x="1150" y="750" width="350" height="350" 
        fill="none" stroke="#ffffff" stroke-width="2" stroke-dasharray="15,10" opacity="0.3"/>
</svg>